<svg id="photo-camera-black-tool" xmlns="http://www.w3.org/2000/svg" width="16.679" height="14.492" viewBox="0 0 16.679 14.492">
  <g id="Group_9594" data-name="Group 9594">
    <path id="Path_409" data-name="Path 409" d="M14.594,39.89H13.031l-.521-1.035c-.307-.6-.466-1.035-1.042-1.035H5.212c-.576,0-.766.494-1.042,1.035L3.649,39.89H2.085A2.078,2.078,0,0,0,0,41.961v8.281a2.078,2.078,0,0,0,2.085,2.07H14.594a2.078,2.078,0,0,0,2.085-2.07V41.961A2.078,2.078,0,0,0,14.594,39.89ZM8.34,50.242a4.141,4.141,0,1,1,4.17-4.14A4.155,4.155,0,0,1,8.34,50.242Z" transform="translate(0 -37.82)"/>
  </g>
</svg>
