<svg xmlns="http://www.w3.org/2000/svg" width="19.233" height="19.233" viewBox="0 0 19.233 19.233">
  <g id="logout-svgrepo-com" transform="translate(0 -0.001)">
    <g id="Sign_Out" transform="translate(0 0.001)">
      <path id="Path_1162" data-name="Path 1162" d="M9.015,18.032H1.2V1.2H9.015a.6.6,0,0,0,0-1.2H.6A.6.6,0,0,0,0,.6V18.633a.6.6,0,0,0,.6.6H9.015a.6.6,0,0,0,0-1.2Z" transform="translate(0 -0.001)"/>
      <path id="Path_1163" data-name="Path 1163" d="M99.1,100.713l-4.147-4.207a.6.6,0,0,0-.85,0,.611.611,0,0,0,0,.858l3.125,3.17H84.85a.607.607,0,0,0,0,1.214H97.227l-3.125,3.17a.611.611,0,0,0,0,.858.6.6,0,0,0,.85,0l4.146-4.207A.615.615,0,0,0,99.1,100.713Z" transform="translate(-80.04 -91.516)"/>
    </g>
  </g>
</svg>
