<svg xmlns="http://www.w3.org/2000/svg" width="11" height="17.589" viewBox="0 0 11 17.589">
  <g id="location_1_" data-name="location (1)" transform="translate(-95.898)">
    <path id="Path_419" data-name="Path 419" d="M174.951,83.179a2.883,2.883,0,1,0-2.883-2.883A2.886,2.886,0,0,0,174.951,83.179Zm0-4.735A1.852,1.852,0,1,1,173.1,80.3,1.855,1.855,0,0,1,174.951,78.443Z" transform="translate(-73.553 -74.754)" fill="#4c47e4"/>
    <path id="Path_420" data-name="Path 420" d="M98.259,10.723c.781,1.057.467.646,2.717,3.858a.515.515,0,0,0,.845,0c2.26-3.227,1.949-2.818,2.717-3.858a13.111,13.111,0,0,0,2.024-3.42,5.323,5.323,0,0,0-.777-5.149h0a5.545,5.545,0,0,0-8.773,0A5.323,5.323,0,0,0,96.235,7.3,13.11,13.11,0,0,0,98.259,10.723Zm-.432-7.939a4.514,4.514,0,0,1,7.143,0h0a4.323,4.323,0,0,1,.618,4.182,12.347,12.347,0,0,1-1.879,3.144c-.57.772-.4.536-2.31,3.275-1.909-2.736-1.74-2.5-2.31-3.275a12.347,12.347,0,0,1-1.879-3.144,4.323,4.323,0,0,1,.618-4.182Z" fill="#4c47e4"/>
    <path id="Path_421" data-name="Path 421" d="M109.024,370.417a.515.515,0,0,0-.711-.16l-1.465.925a.515.515,0,0,0,0,.871l4.617,2.916a.515.515,0,0,0,.55,0l4.617-2.916a.515.515,0,0,0,0-.871l-1.465-.925a.515.515,0,1,0-.55.871l.775.49-3.652,2.307-3.652-2.307.775-.49A.515.515,0,0,0,109.024,370.417Z" transform="translate(-10.342 -357.46)" fill="#4c47e4"/>
  </g>
</svg>
