<svg xmlns="http://www.w3.org/2000/svg" width="33.828" height="31.135" viewBox="0 0 33.828 31.135">
  <g id="star_6_" data-name="star (6)" transform="translate(0.5 -20.5)">
    <path id="Path_423" data-name="Path 423" d="M312.641,298.053a5.135,5.135,0,0,1,5.129,5.129.641.641,0,1,0,1.282,0,5.135,5.135,0,0,1,5.129-5.129.641.641,0,0,0,0-1.282,5.135,5.135,0,0,1-5.129-5.129.641.641,0,1,0-1.282,0,5.135,5.135,0,0,1-5.129,5.129.641.641,0,0,0,0,1.282Zm5.771-3.618a6.455,6.455,0,0,0,2.977,2.977,6.455,6.455,0,0,0-2.977,2.977,6.454,6.454,0,0,0-2.977-2.977A6.454,6.454,0,0,0,318.412,294.435Z" transform="translate(-291.996 -252.688)" fill="#fff" stroke="#fff" stroke-width="1"/>
    <path id="Path_424" data-name="Path 424" d="M.641,26.129a3.209,3.209,0,0,1,3.206,3.206.641.641,0,0,0,1.282,0,3.209,3.209,0,0,1,3.206-3.206.641.641,0,1,0,0-1.282,3.209,3.209,0,0,1-3.206-3.206.641.641,0,0,0-1.282,0A3.209,3.209,0,0,1,.641,24.847a.641.641,0,1,0,0,1.282Zm3.847-2.178a4.525,4.525,0,0,0,1.537,1.537,4.523,4.523,0,0,0-1.537,1.537,4.525,4.525,0,0,0-1.537-1.537A4.525,4.525,0,0,0,4.488,23.951Z" fill="#fff" stroke="#fff" stroke-width="1"/>
    <circle id="Ellipse_3" data-name="Ellipse 3" cx="0.5" cy="0.5" r="0.5" transform="translate(17 38)" fill="#fff" stroke="#fff" stroke-width="1"/>
    <path id="Path_425" data-name="Path 425" d="M53.291,65.118a.641.641,0,0,0,.879.224,10.887,10.887,0,0,1,5.554-1.519.641.641,0,0,0,0-1.282,10.912,10.912,0,0,1-10.9-10.9.641.641,0,0,0-1.282,0,10.912,10.912,0,0,1-10.9,10.9.641.641,0,0,0,0,1.282,10.912,10.912,0,0,1,10.9,10.9.641.641,0,0,0,1.282,0,10.887,10.887,0,0,1,1.519-5.554.641.641,0,0,0-1.1-.654,12.1,12.1,0,0,0-1.058,2.3,12.241,12.241,0,0,0-7.637-7.637,12.241,12.241,0,0,0,7.638-7.638,12.241,12.241,0,0,0,7.637,7.637,12.1,12.1,0,0,0-2.3,1.058.641.641,0,0,0-.224.879Z" transform="translate(-33.692 -28.076)" fill="#fff" stroke="#fff" stroke-width="1"/>
  </g>
</svg>
