<svg id="stroller-24px" xmlns="http://www.w3.org/2000/svg" width="24" height="24" viewBox="0 0 24 24">
  <rect id="Rectangle_877" data-name="Rectangle 877" width="24" height="24" fill="none"/>
  <g id="Group_9681" data-name="Group 9681" transform="translate(4 18)">
    <circle id="Ellipse_7" data-name="Ellipse 7" cx="2" cy="2" r="2" transform="translate(10)" fill="#555"/>
    <circle id="Ellipse_8" data-name="Ellipse 8" cx="2" cy="2" r="2" fill="#555"/>
  </g>
  <path id="Path_443" data-name="Path 443" d="M22,7V6.48A3.405,3.405,0,0,0,18.65,3c-1.66,0-2.54,1.27-3.18,2.03L6.67,15.35A1,1,0,0,0,7.43,17H15a2.006,2.006,0,0,0,2-2V6.27c.58-.68.97-1.27,1.65-1.27A1.4,1.4,0,0,1,20,6.48V7Z"/>
  <path id="Path_444" data-name="Path 444" d="M14.3,4.1a8.96,8.96,0,0,0-9.58.62L9.61,9.61Z" fill="#555"/>
</svg>
