<svg xmlns="http://www.w3.org/2000/svg" width="23.343" height="33.268" viewBox="0 0 23.343 33.268">
  <g id="Group_9626" data-name="Group 9626" transform="matrix(0.998, 0.07, -0.07, 0.998, 1.191, -0.839)">
    <g id="Group_9545" data-name="Group 9545" transform="matrix(-0.259, 0.966, -0.966, -0.259, 23.356, 4.159)">
      <g id="Group_9533" data-name="Group 9533" transform="translate(0 0.906)">
        <path id="Path_378" data-name="Path 378" d="M29.7,2.186C29.236.737,28.515,0,27.513,0H3.928A3.019,3.019,0,0,0,1.205,2.186,9.744,9.744,0,0,0,0,7.23a8.586,8.586,0,0,0,1.205,4.848,3.267,3.267,0,0,0,2.723,2.186H27.513c.958,0,1.843-1.17,2.186-2.186a16.042,16.042,0,0,0,.574-4.848A18.441,18.441,0,0,0,29.7,2.186Z" transform="translate(0 0)" fill="#dbdcde"/>
        <path id="Path_379" data-name="Path 379" d="M3.218,13a2.728,2.728,0,0,1-2.042-1.7A9.24,9.24,0,0,1,0,6.6,9.273,9.273,0,0,1,1.182,1.685,2.083,2.083,0,0,1,3.218,0H27.381c.235,0,.951,0,1.491,1.69A18.467,18.467,0,0,1,29.42,6.6a16.06,16.06,0,0,1-.542,4.689c-.3.9-1.016,1.709-1.5,1.709Z" transform="translate(0.426 0.634)" fill="#e7e8e9"/>
        <path id="Path_380" data-name="Path 380" d="M2.83,12.221A2.37,2.37,0,0,1,1.161,10.8,8.995,8.995,0,0,1,0,6.21a9.362,9.362,0,0,1,1.164-4.8A1.712,1.712,0,0,1,2.83,0H26.993c.443,0,.821.478,1.122,1.42a18.329,18.329,0,0,1,.53,4.79,15.959,15.959,0,0,1-.522,4.565c-.287.849-.9,1.445-1.13,1.445Z" transform="translate(0.814 1.022)" fill="#fff"/>
      </g>
      <g id="Group_9534" data-name="Group 9534" transform="translate(2.431 2.374)">
        <path id="Path_381" data-name="Path 381" d="M0,1.74S.392.124,6.233,0A26.522,26.522,0,0,0,0,1.74Z" transform="translate(0 0)" fill="#e7e8e9"/>
        <path id="Path_382" data-name="Path 382" d="M0,0S.392,1.616,6.233,1.74A26.521,26.521,0,0,1,0,0Z" transform="translate(0 9.58)" fill="#e7e8e9"/>
      </g>
      <g id="Group_9539" data-name="Group 9539" transform="translate(7.761 2.302)">
        <g id="Group_9535" data-name="Group 9535" transform="translate(2.195 0)">
          <path id="Path_383" data-name="Path 383" d="M0,0H17.7L15.184,1.087H6.251Z" transform="translate(0)" fill="#07191f"/>
          <path id="Path_384" data-name="Path 384" d="M6.794,0H2.537L0,1.087H4.258Z" transform="translate(6.753 0)" fill="#1a262c"/>
          <rect id="Rectangle_34" data-name="Rectangle 34" width="0.481" height="1.087" transform="translate(9.954 0)" fill="#fff"/>
        </g>
        <g id="Group_9536" data-name="Group 9536" transform="translate(2.195 10.33)">
          <path id="Path_385" data-name="Path 385" d="M0,1.087H17.7L15.184,0H6.251Z" transform="translate(0 0)" fill="#07191f"/>
          <path id="Path_386" data-name="Path 386" d="M6.794,1.087H2.537L0,0H4.258Z" transform="translate(6.753 0)" fill="#1a262c"/>
          <rect id="Rectangle_35" data-name="Rectangle 35" width="0.481" height="1.087" transform="translate(9.954 0)" fill="#fff"/>
        </g>
        <g id="Group_9537" data-name="Group 9537" transform="translate(0 0.233)">
          <path id="Path_387" data-name="Path 387" d="M6.193,8.545a9.932,9.932,0,0,1-.355-3,11.417,11.417,0,0,1,.355-3.121c.286-.9.732-1.352,1.352-1.352L1.708,0C1.087,0,.641,1.529.355,2.426A11.408,11.408,0,0,0,0,5.546a9.924,9.924,0,0,0,.355,3c.212.629.76,2.426,1.352,2.426L7.546,9.9C6.953,9.9,6.406,9.174,6.193,8.545Z" transform="translate(0 0)" fill="#07191f"/>
          <path id="Path_388" data-name="Path 388" d="M.355,2.426A11.408,11.408,0,0,0,0,5.546a9.922,9.922,0,0,0,.355,3c.212.629.76,2.426,1.352,2.426l1.02-.187a4.342,4.342,0,0,0,.437-1.1A18.529,18.529,0,0,0,3.527,5.51a21.349,21.349,0,0,0-.363-4.348,5.417,5.417,0,0,0-.3-.949L1.708,0C1.087,0,.641,1.529.355,2.426Z" transform="translate(0 0)" fill="#1a262c"/>
        </g>
        <g id="Group_9538" data-name="Group 9538" transform="translate(17.705 0.233)">
          <path id="Path_389" data-name="Path 389" d="M.784,8.545a16.72,16.72,0,0,0,.206-3A19.277,19.277,0,0,0,.784,2.426C.618,1.529.359,1.073,0,1.073L2.59,0c.359,0,.618,1.529.784,2.426a19.279,19.279,0,0,1,.206,3.121,16.723,16.723,0,0,1-.206,3c-.123.629-.441,2.426-.784,2.426L0,9.9C.343,9.9.661,9.174.784,8.545Z" transform="translate(0 0)" fill="#07191f"/>
          <path id="Path_390" data-name="Path 390" d="M1.147,0,.727.174A4.825,4.825,0,0,0,.355,1.259,20.864,20.864,0,0,0,0,5.509,18.112,18.112,0,0,0,.355,9.594a4.048,4.048,0,0,0,.56,1.281l.231.1c.343,0,.66-1.8.784-2.426a16.72,16.72,0,0,0,.206-3A19.277,19.277,0,0,0,1.93,2.426C1.764,1.529,1.506,0,1.147,0Z" transform="translate(1.443 0)" fill="#1a262c"/>
        </g>
      </g>
      <g id="Group_9540" data-name="Group 9540" transform="translate(27.769 12.498)">
        <path id="Path_391" data-name="Path 391" d="M0,2.644A3.264,3.264,0,0,0,1.929.486S1.987.323,2.065,0A2.76,2.76,0,0,0,0,2.644Z" transform="translate(0 0)" fill="#e82727"/>
        <path id="Path_392" data-name="Path 392" d="M2.036.118C2.045.081,2.055.042,2.065,0A2.76,2.76,0,0,0,0,2.644,1.456,1.456,0,0,0,.287,2.55,2.685,2.685,0,0,1,2.036.118Z" transform="translate(0 0)" fill="#d62424"/>
      </g>
      <g id="Group_9541" data-name="Group 9541" transform="translate(27.772 0.924)">
        <path id="Path_393" data-name="Path 393" d="M0,0A2.752,2.752,0,0,0,2.029,2.558c-.061-.256-.1-.389-.1-.389C1.5.848.869.119,0,0Z" transform="translate(0 0)" fill="#e82727"/>
        <path id="Path_394" data-name="Path 394" d="M.287.064A1.731,1.731,0,0,0,0,0,2.752,2.752,0,0,0,2.029,2.558c-.01-.044-.02-.084-.029-.121A2.676,2.676,0,0,1,.287.064Z" transform="translate(0 0)" fill="#d62424"/>
      </g>
      <g id="Group_9542" data-name="Group 9542" transform="translate(10.324 0)">
        <path id="Path_395" data-name="Path 395" d="M.327,0l.693,2.776A1.964,1.964,0,0,1,.327,0Z" transform="translate(0 13.293)" fill="#b4b7bb"/>
        <path id="Path_396" data-name="Path 396" d="M.327,2.776,1.019,0A1.964,1.964,0,0,0,.327,2.776Z" transform="translate(0 0)" fill="#b4b7bb"/>
      </g>
      <g id="Group_9543" data-name="Group 9543" transform="translate(0.807 0.908)">
        <path id="Path_397" data-name="Path 397" d="M.4,2.184A13.074,13.074,0,0,0,0,4.261,9.571,9.571,0,0,0,3.024,0,3.039,3.039,0,0,0,.4,2.184Z" transform="translate(0 0)" fill="#b4b7bb"/>
        <path id="Path_398" data-name="Path 398" d="M0,1.03A4.216,4.216,0,0,0,1.709.75,6.781,6.781,0,0,0,1.987,0,2.881,2.881,0,0,0,0,1.03Z" transform="translate(1.036 0)" fill="#e82727"/>
        <path id="Path_399" data-name="Path 399" d="M2.7.039A9.559,9.559,0,0,1,.075,3.72C.05,3.887.024,4.068,0,4.261A9.571,9.571,0,0,0,3.024,0,2.3,2.3,0,0,0,2.7.039Z" transform="translate(0 0)" fill="#a5aaae"/>
        <path id="Path_400" data-name="Path 400" d="M.374.039A7.208,7.208,0,0,1,0,.892,3.445,3.445,0,0,0,.423.75,6.8,6.8,0,0,0,.7,0,2.3,2.3,0,0,0,.374.039Z" transform="translate(2.323 0)" fill="#d62424"/>
      </g>
      <g id="Group_9544" data-name="Group 9544" transform="translate(0.777 10.804)">
        <path id="Path_401" data-name="Path 401" d="M0,0A11.2,11.2,0,0,0,.428,2.18,3.293,3.293,0,0,0,3.077,4.364,9.536,9.536,0,0,0,0,0Z" fill="#b4b7bb"/>
        <path id="Path_402" data-name="Path 402" d="M2.044,1.115a6.762,6.762,0,0,0-.3-.833A4.237,4.237,0,0,0,0,0,3.269,3.269,0,0,0,2.044,1.115Z" transform="translate(1.033 3.249)" fill="#e82727"/>
        <path id="Path_403" data-name="Path 403" d="M2.724,4.311a1.911,1.911,0,0,0,.353.054A9.536,9.536,0,0,0,0,0C.026.222.054.428.083.616A9.582,9.582,0,0,1,2.724,4.311Z" fill="#a5aaae"/>
        <path id="Path_404" data-name="Path 404" d="M.417.933A1.91,1.91,0,0,0,.77.986a6.768,6.768,0,0,0-.3-.833A3.446,3.446,0,0,0,0,0,7.283,7.283,0,0,1,.417.933Z" transform="translate(2.307 3.378)" fill="#d62424"/>
      </g>
    </g>
  </g>
</svg>
