<svg id="visa" xmlns="http://www.w3.org/2000/svg" width="57.875" height="18.112" viewBox="0 0 57.875 18.112">
  <g id="Group_9848" data-name="Group 9848" transform="translate(5.408 0)">
    <g id="Group_9847" data-name="Group 9847">
      <path id="Path_503" data-name="Path 503" d="M45.511,100.23l-2.9,18.075h4.643l2.9-18.075Zm14,7.363c-1.622-.8-2.617-1.342-2.617-2.161.02-.745.841-1.508,2.675-1.508a8.08,8.08,0,0,1,3.458.669l.421.188L64.083,101a11.719,11.719,0,0,0-4.167-.745c-4.585,0-7.813,2.384-7.833,5.793-.038,2.516,2.311,3.912,4.069,4.749,1.8.859,2.407,1.416,2.407,2.179-.02,1.172-1.452,1.713-2.789,1.713a9.442,9.442,0,0,1-4.357-.932l-.611-.278-.649,3.93a14.5,14.5,0,0,0,5.178.933c4.872,0,8.043-2.348,8.083-5.981C63.43,110.367,62.192,108.841,59.515,107.593Zm16.471-7.307H72.394a2.3,2.3,0,0,0-2.427,1.454l-6.9,16.565h4.872l1.342-3.586h5.451l.7,3.6h4.3ZM70.636,111.1c.094.009,1.87-5.854,1.87-5.854l1.414,5.854ZM38.727,100.23l-4.549,12.28-.5-2.422a13.5,13.5,0,0,0-6.421-7.339l4.165,15.538H36.34l7.3-18.055H38.727Z" transform="translate(-27.262 -100.23)" fill="#2394bc"/>
    </g>
  </g>
  <path id="Path_504" data-name="Path 504" d="M10.3,102.576a3.033,3.033,0,0,0-3.02-2.328H.074L0,100.582c5.619,1.385,10.336,5.648,11.866,9.658Z" transform="translate(0 -100.244)" fill="#efc75e"/>
</svg>
